# xmcd CD database file
#
# Track frame offsets:
#	150
#	17282
#	34504
#	49227
#	63551
#	79158
#	91443
#	106430
#	122267
#	140577
#	157014
#	173881
#	192072
#
# Disc length: 2794 seconds
#
# Revision: 0
# Processed by: cddbd v1.5.1PL0 Copyright (c) Steve Scherf et al.
# Submitted via: CDex 1.51
#
DISCID=a30ae80d
DTITLE=CJVR - Baker's Dozen
DYEAR=2005
DGENRE=Country
TTITLE0=Brad Johner-My Brother and Me
TTITLE1=The Poverty Plainsmen-Everybody Say Eh!
TTITLE2=Melanie Laine-One Night at Home
TTITLE3=Marny Duncan-Cary-Because I Want To
TTITLE4=Faster Gun-If You Don't Love Me By Now
TTITLE5=Sean Hogan-Centered
TTITLE6=Jesscia Robinson-I'll Save My Prayers
TTITLE7=Heather Dawn-Beautiful People
TTITLE8=Lisa Hewitt-One Of These Goodbyes
TTITLE9=Second Glace-Take A Little Time
TTITLE10=Melanie Charpentier-Learning To Fly
TTITLE11=Shifty Morgan-Old Man In The Mirror
TTITLE12=Donny Parenteau-Where Would I Be
EXTD=YEAR: 2005
EXTT0=
EXTT1=
EXTT2=
EXTT3=
EXTT4=
EXTT5=
EXTT6=
EXTT7=
EXTT8=
EXTT9=
EXTT10=
EXTT11=
EXTT12=
PLAYORDER=
